<svg width="25" height="26" viewBox="0 0 25 26" fill="none" xmlns="http://www.w3.org/2000/svg">
<path d="M22.2656 3.66602H20.3125V2.88477C20.3125 2.47036 20.1479 2.07294 19.8549 1.77991C19.5618 1.48689 19.1644 1.32227 18.75 1.32227C18.3356 1.32227 17.9382 1.48689 17.6451 1.77991C17.3521 2.07294 17.1875 2.47036 17.1875 2.88477V3.66602H14.0625V2.88477C14.0625 2.47036 13.8979 2.07294 13.6049 1.77991C13.3118 1.48689 12.9144 1.32227 12.5 1.32227C12.0856 1.32227 11.6882 1.48689 11.3951 1.77991C11.1021 2.07294 10.9375 2.47036 10.9375 2.88477V3.66602H7.8125V2.88477C7.8125 2.47036 7.64788 2.07294 7.35485 1.77991C7.06183 1.48689 6.6644 1.32227 6.25 1.32227C5.8356 1.32227 5.43817 1.48689 5.14515 1.77991C4.85212 2.07294 4.6875 2.47036 4.6875 2.88477V3.66602H2.73438C2.21637 3.66602 1.71959 3.87179 1.35331 4.23807C0.987025 4.60435 0.78125 5.10114 0.78125 5.61914V21.2441C0.78125 21.7621 0.987025 22.2589 1.35331 22.6252C1.71959 22.9915 2.21637 23.1973 2.73438 23.1973H13.6719C13.7755 23.1973 13.8748 23.1561 13.9481 23.0829C14.0213 23.0096 14.0625 22.9102 14.0625 22.8066C14.0625 22.703 14.0213 22.6037 13.9481 22.5304C13.8748 22.4572 13.7755 22.416 13.6719 22.416H2.73438C2.42386 22.4151 2.12633 22.2913 1.90676 22.0718C1.68719 21.8522 1.56343 21.5547 1.5625 21.2441V9.13477H23.4375V15.7754C23.4375 15.879 23.4787 15.9783 23.5519 16.0516C23.6252 16.1249 23.7245 16.166 23.8281 16.166C23.9317 16.166 24.0311 16.1249 24.1043 16.0516C24.1776 15.9783 24.2188 15.879 24.2188 15.7754V5.61914C24.2188 5.10114 24.013 4.60435 23.6467 4.23807C23.2804 3.87179 22.7836 3.66602 22.2656 3.66602ZM17.9688 2.88477C17.9688 2.67757 18.0511 2.47885 18.1976 2.33234C18.3441 2.18583 18.5428 2.10352 18.75 2.10352C18.9572 2.10352 19.1559 2.18583 19.3024 2.33234C19.4489 2.47885 19.5312 2.67757 19.5312 2.88477V5.22852C19.5312 5.43572 19.4489 5.63443 19.3024 5.78094C19.1559 5.92746 18.9572 6.00977 18.75 6.00977C18.5428 6.00977 18.3441 5.92746 18.1976 5.78094C18.0511 5.63443 17.9688 5.43572 17.9688 5.22852V2.88477ZM11.7188 2.88477C11.7188 2.67757 11.8011 2.47885 11.9476 2.33234C12.0941 2.18583 12.2928 2.10352 12.5 2.10352C12.7072 2.10352 12.9059 2.18583 13.0524 2.33234C13.1989 2.47885 13.2812 2.67757 13.2812 2.88477V5.22852C13.2812 5.43572 13.1989 5.63443 13.0524 5.78094C12.9059 5.92746 12.7072 6.00977 12.5 6.00977C12.2928 6.00977 12.0941 5.92746 11.9476 5.78094C11.8011 5.63443 11.7188 5.43572 11.7188 5.22852V2.88477ZM5.46875 2.88477C5.46875 2.67757 5.55106 2.47885 5.69757 2.33234C5.84409 2.18583 6.0428 2.10352 6.25 2.10352C6.4572 2.10352 6.65591 2.18583 6.80243 2.33234C6.94894 2.47885 7.03125 2.67757 7.03125 2.88477V5.22852C7.03125 5.43572 6.94894 5.63443 6.80243 5.78094C6.65591 5.92746 6.4572 6.00977 6.25 6.00977C6.0428 6.00977 5.84409 5.92746 5.69757 5.78094C5.55106 5.63443 5.46875 5.43572 5.46875 5.22852V2.88477ZM23.4375 8.35352H1.5625V5.61914C1.56343 5.30863 1.68719 5.01109 1.90676 4.79152C2.12633 4.57196 2.42386 4.44819 2.73438 4.44727H4.6875V5.22852C4.6875 5.64292 4.85212 6.04034 5.14515 6.33337C5.43817 6.6264 5.8356 6.79102 6.25 6.79102C6.6644 6.79102 7.06183 6.6264 7.35485 6.33337C7.64788 6.04034 7.8125 5.64292 7.8125 5.22852V4.44727H10.9375V5.22852C10.9375 5.64292 11.1021 6.04034 11.3951 6.33337C11.6882 6.6264 12.0856 6.79102 12.5 6.79102C12.9144 6.79102 13.3118 6.6264 13.6049 6.33337C13.8979 6.04034 14.0625 5.64292 14.0625 5.22852V4.44727H17.1875V5.22852C17.1875 5.64292 17.3521 6.04034 17.6451 6.33337C17.9382 6.6264 18.3356 6.79102 18.75 6.79102C19.1644 6.79102 19.5618 6.6264 19.8549 6.33337C20.1479 6.04034 20.3125 5.64292 20.3125 5.22852V4.44727H22.2656C22.5761 4.44819 22.8737 4.57196 23.0932 4.79152C23.3128 5.01109 23.4366 5.30863 23.4375 5.61914V8.35352Z" fill="#437FC8"/>
<path d="M11.7188 11.8691C11.7188 11.6619 11.6364 11.4632 11.4899 11.3167C11.3434 11.1702 11.1447 11.0879 10.9375 11.0879H9.375C9.1678 11.0879 8.96909 11.1702 8.82257 11.3167C8.67606 11.4632 8.59375 11.6619 8.59375 11.8691V13.041C8.59375 13.2482 8.67606 13.4469 8.82257 13.5934C8.96909 13.74 9.1678 13.8223 9.375 13.8223H10.9375C11.1447 13.8223 11.3434 13.74 11.4899 13.5934C11.6364 13.4469 11.7188 13.2482 11.7188 13.041V11.8691ZM9.375 13.041V11.8691H10.9375V13.041H9.375Z" fill="#437FC8"/>
<path d="M7.03125 11.8691C7.03125 11.6619 6.94894 11.4632 6.80243 11.3167C6.65591 11.1702 6.4572 11.0879 6.25 11.0879H4.6875C4.4803 11.0879 4.28159 11.1702 4.13507 11.3167C3.98856 11.4632 3.90625 11.6619 3.90625 11.8691V13.041C3.90625 13.2482 3.98856 13.4469 4.13507 13.5934C4.28159 13.74 4.4803 13.8223 4.6875 13.8223H6.25C6.4572 13.8223 6.65591 13.74 6.80243 13.5934C6.94894 13.4469 7.03125 13.2482 7.03125 13.041V11.8691ZM4.6875 13.041V11.8691H6.25V13.041H4.6875Z" fill="#437FC8"/>
<path d="M20.3125 13.8223C20.5197 13.8223 20.7184 13.74 20.8649 13.5934C21.0114 13.4469 21.0938 13.2482 21.0938 13.041V11.8691C21.0938 11.6619 21.0114 11.4632 20.8649 11.3167C20.7184 11.1702 20.5197 11.0879 20.3125 11.0879H18.75C18.5428 11.0879 18.3441 11.1702 18.1976 11.3167C18.0511 11.4632 17.9688 11.6619 17.9688 11.8691V13.041C17.9688 13.2482 18.0511 13.4469 18.1976 13.5934C18.3441 13.74 18.5428 13.8223 18.75 13.8223H20.3125ZM18.75 11.8691H20.3125V13.041H18.75V11.8691Z" fill="#437FC8"/>
<path d="M11.7188 15.3848C11.7188 15.1776 11.6364 14.9789 11.4899 14.8323C11.3434 14.6858 11.1447 14.6035 10.9375 14.6035H9.375C9.1678 14.6035 8.96909 14.6858 8.82257 14.8323C8.67606 14.9789 8.59375 15.1776 8.59375 15.3848V16.5566C8.59375 16.7638 8.67606 16.9626 8.82257 17.1091C8.96909 17.2556 9.1678 17.3379 9.375 17.3379H10.9375C11.1447 17.3379 11.3434 17.2556 11.4899 17.1091C11.6364 16.9626 11.7188 16.7638 11.7188 16.5566V15.3848ZM9.375 16.5566V15.3848H10.9375V16.5566H9.375Z" fill="#437FC8"/>
<path d="M7.03125 15.3848C7.03125 15.1776 6.94894 14.9789 6.80243 14.8323C6.65591 14.6858 6.4572 14.6035 6.25 14.6035H4.6875C4.4803 14.6035 4.28159 14.6858 4.13507 14.8323C3.98856 14.9789 3.90625 15.1776 3.90625 15.3848V16.5566C3.90625 16.7638 3.98856 16.9626 4.13507 17.1091C4.28159 17.2556 4.4803 17.3379 4.6875 17.3379H6.25C6.4572 17.3379 6.65591 17.2556 6.80243 17.1091C6.94894 16.9626 7.03125 16.7638 7.03125 16.5566V15.3848ZM4.6875 16.5566V15.3848H6.25V16.5566H4.6875Z" fill="#437FC8"/>
<path d="M10.9375 18.1191H9.375C9.1678 18.1191 8.96909 18.2015 8.82257 18.348C8.67606 18.4945 8.59375 18.6932 8.59375 18.9004V20.0723C8.59375 20.2795 8.67606 20.4782 8.82257 20.6247C8.96909 20.7712 9.1678 20.8535 9.375 20.8535H10.9375C11.1447 20.8535 11.3434 20.7712 11.4899 20.6247C11.6364 20.4782 11.7188 20.2795 11.7188 20.0723V18.9004C11.7188 18.6932 11.6364 18.4945 11.4899 18.348C11.3434 18.2015 11.1447 18.1191 10.9375 18.1191ZM9.375 20.0723V18.9004H10.9375V20.0723H9.375Z" fill="#437FC8"/>
<path d="M14.0625 13.8223H15.625C15.8322 13.8223 16.0309 13.74 16.1774 13.5934C16.3239 13.4469 16.4062 13.2482 16.4062 13.041V11.8691C16.4062 11.6619 16.3239 11.4632 16.1774 11.3167C16.0309 11.1702 15.8322 11.0879 15.625 11.0879H14.0625C13.8553 11.0879 13.6566 11.1702 13.5101 11.3167C13.3636 11.4632 13.2812 11.6619 13.2812 11.8691V13.041C13.2812 13.2482 13.3636 13.4469 13.5101 13.5934C13.6566 13.74 13.8553 13.8223 14.0625 13.8223ZM14.0625 11.8691H15.625V13.041H14.0625V11.8691Z" fill="#437FC8"/>
<path d="M13.2812 16.5566C13.2812 16.7638 13.3636 16.9626 13.5101 17.1091C13.6566 17.2556 13.8553 17.3379 14.0625 17.3379C14.1661 17.3379 14.2655 17.2967 14.3387 17.2235C14.412 17.1502 14.4531 17.0509 14.4531 16.9473C14.4531 16.8437 14.412 16.7443 14.3387 16.6711C14.2655 16.5978 14.1661 16.5566 14.0625 16.5566V15.3848H15.625C15.7286 15.3848 15.828 15.3436 15.9012 15.2704C15.9745 15.1971 16.0156 15.0977 16.0156 14.9941C16.0156 14.8905 15.9745 14.7912 15.9012 14.7179C15.828 14.6447 15.7286 14.6035 15.625 14.6035H14.0625C13.8553 14.6035 13.6566 14.6858 13.5101 14.8323C13.3636 14.9789 13.2812 15.1776 13.2812 15.3848V16.5566Z" fill="#437FC8"/>
<path d="M6.25 18.1191H4.6875C4.4803 18.1191 4.28159 18.2015 4.13507 18.348C3.98856 18.4945 3.90625 18.6932 3.90625 18.9004V20.0723C3.90625 20.2795 3.98856 20.4782 4.13507 20.6247C4.28159 20.7712 4.4803 20.8535 4.6875 20.8535H6.25C6.4572 20.8535 6.65591 20.7712 6.80243 20.6247C6.94894 20.4782 7.03125 20.2795 7.03125 20.0723V18.9004C7.03125 18.6932 6.94894 18.4945 6.80243 18.348C6.65591 18.2015 6.4572 18.1191 6.25 18.1191ZM4.6875 20.0723V18.9004H6.25V20.0723H4.6875Z" fill="#437FC8"/>
<path d="M19.1406 14.6035C18.1363 14.6035 17.1545 14.9013 16.3194 15.4593C15.4843 16.0173 14.8334 16.8104 14.4491 17.7383C14.0647 18.6662 13.9641 19.6873 14.1601 20.6723C14.356 21.6574 14.8397 22.5622 15.5498 23.2724C16.26 23.9826 17.1649 24.4662 18.1499 24.6622C19.135 24.8581 20.156 24.7576 21.0839 24.3732C22.0118 23.9889 22.8049 23.338 23.3629 22.5029C23.9209 21.6678 24.2187 20.686 24.2187 19.6816C24.2172 18.3353 23.6817 17.0446 22.7297 16.0926C21.7777 15.1406 20.4869 14.6051 19.1406 14.6035ZM19.1406 23.9785C18.2908 23.9785 17.46 23.7265 16.7534 23.2544C16.0468 22.7822 15.4961 22.1111 15.1708 21.326C14.8456 20.5408 14.7605 19.6769 14.9263 18.8434C15.0921 18.0098 15.5013 17.2442 16.1023 16.6433C16.7032 16.0424 17.4688 15.6331 18.3023 15.4673C19.1359 15.3015 19.9998 15.3866 20.785 15.7118C21.5701 16.0371 22.2412 16.5878 22.7133 17.2944C23.1855 18.001 23.4375 18.8318 23.4375 19.6816C23.4361 20.8208 22.983 21.913 22.1775 22.7185C21.372 23.524 20.2798 23.9772 19.1406 23.9785Z" fill="#437FC8"/>
<path d="M21.3975 18.0442L18.3593 21.0825L16.9784 19.7013C16.9047 19.6301 16.8061 19.5907 16.7036 19.5916C16.6012 19.5925 16.5032 19.6336 16.4308 19.706C16.3584 19.7784 16.3173 19.8764 16.3164 19.9788C16.3155 20.0813 16.3549 20.1799 16.4261 20.2536L18.0831 21.911C18.1563 21.9843 18.2557 22.0254 18.3593 22.0254C18.4628 22.0254 18.5622 21.9843 18.6354 21.911L21.9499 18.5966C22.021 18.5229 22.0604 18.4242 22.0595 18.3218C22.0586 18.2194 22.0176 18.1214 21.9451 18.049C21.8727 17.9766 21.7747 17.9355 21.6723 17.9346C21.5699 17.9337 21.4712 17.9731 21.3975 18.0442Z" fill="#437FC8"/>
</svg>
