<svg width="26" height="26" viewBox="0 0 26 26" fill="none" xmlns="http://www.w3.org/2000/svg">
<g clip-path="url(#clip0_31_12)">
<path d="M25.2502 19.7804L20.1901 16.4059C19.548 15.9811 18.6872 16.1209 18.2125 16.7271L16.7386 18.6222C16.5491 18.872 16.2048 18.9444 15.9308 18.7922L15.6504 18.6376C14.7209 18.131 13.5645 17.5003 11.2344 15.1694C8.90431 12.8385 8.27233 11.6812 7.76571 10.7534L7.61198 10.473C7.45765 10.199 7.52874 9.85325 7.7786 9.66231L9.67246 8.1888C10.2784 7.71402 10.4184 6.8535 9.99409 6.21116L6.6196 1.15108C6.18475 0.496975 5.31232 0.300618 4.63913 0.705294L2.52318 1.97635C1.85834 2.36721 1.37057 3.00022 1.16215 3.74273C0.400206 6.51898 0.973411 11.3104 8.03154 18.3693C13.6461 23.9835 17.8259 25.4933 20.6989 25.4933C21.36 25.4961 22.0186 25.4101 22.6569 25.2375C23.3996 25.0293 24.0327 24.5415 24.4233 23.8765L25.6956 21.7618C26.1009 21.0884 25.9046 20.2155 25.2502 19.7804ZM24.9778 21.3343L23.7084 23.4503C23.4279 23.9303 22.9725 24.2832 22.4377 24.4351C19.8748 25.1388 15.3971 24.5559 8.62101 17.7799C1.84491 11.0038 1.26214 6.5265 1.96579 3.96316C2.11792 3.42769 2.47129 2.97175 2.95188 2.69084L5.06782 1.42145C5.35992 1.24569 5.73857 1.33088 5.92727 1.61473L7.76034 4.36681L9.29889 6.67438C9.48314 6.953 9.4226 7.32643 9.15975 7.5326L7.26545 9.00611C6.68897 9.44691 6.52435 10.2445 6.87927 10.8775L7.02969 11.1508C7.56213 12.1273 8.22409 13.3421 10.6408 15.7585C13.0576 18.1748 14.272 18.8368 15.2481 19.3692L15.5217 19.52C16.1547 19.8749 16.9523 19.7103 17.3931 19.1338L18.8667 17.2395C19.0729 16.9768 19.4462 16.9163 19.7249 17.1004L24.7845 20.4749C25.0686 20.6634 25.1538 21.0423 24.9778 21.3343Z" fill="#437FC8"/>
<path d="M15.0719 4.66277C18.9815 4.66711 22.1498 7.83544 22.1542 11.7451C22.1542 11.9752 22.3407 12.1617 22.5708 12.1617C22.8008 12.1617 22.9873 11.9752 22.9873 11.7451C22.9825 7.37545 19.4415 3.83437 15.0719 3.82959C14.8418 3.82959 14.6553 4.01609 14.6553 4.24618C14.6553 4.47627 14.8418 4.66277 15.0719 4.66277Z" fill="#437FC8"/>
<path d="M15.0719 7.16252C17.6016 7.1655 19.6516 9.21549 19.6545 11.7452C19.6545 11.9753 19.8411 12.1618 20.0711 12.1618C20.3012 12.1618 20.4877 11.9753 20.4877 11.7452C20.4842 8.7555 18.0615 6.33276 15.0719 6.32935C14.8418 6.32935 14.6553 6.51584 14.6553 6.74593C14.6553 6.97603 14.8418 7.16252 15.0719 7.16252Z" fill="#437FC8"/>
<path d="M15.0719 9.66228C16.2217 9.66365 17.1535 10.5954 17.1549 11.7453C17.1549 11.9754 17.3414 12.1619 17.5715 12.1619C17.8015 12.1619 17.9881 11.9754 17.9881 11.7453C17.9862 10.1355 16.6817 8.83091 15.0719 8.8291C14.8418 8.8291 14.6553 9.0156 14.6553 9.24569C14.6553 9.47578 14.8418 9.66228 15.0719 9.66228Z" fill="#437FC8"/>
</g>
<defs>
<clipPath id="clip0_31_12">
<rect width="25" height="25" fill="white" transform="translate(0.90625 0.494141)"/>
</clipPath>
</defs>
</svg>
