<svg width="26" height="26" viewBox="0 0 26 26" fill="none" xmlns="http://www.w3.org/2000/svg">
<g clip-path="url(#clip0_31_109)">
<path d="M12.1042 9.39555C12.1042 12.411 14.5574 14.8643 17.5729 14.8643C20.5884 14.8643 23.0417 12.411 23.0417 9.39555C23.0417 6.38008 20.5884 3.9268 17.5729 3.9268C14.5574 3.9268 12.1042 6.38008 12.1042 9.39555ZM22.2083 9.39555C22.2083 11.9515 20.1289 14.031 17.5729 14.031C15.0169 14.031 12.9375 11.9515 12.9375 9.39555C12.9375 6.83956 15.0169 4.76013 17.5729 4.76013C20.1289 4.76013 22.2083 6.83956 22.2083 9.39555ZM17.5729 6.58305C17.803 6.58305 17.9896 6.76961 17.9896 6.99971V7.17555C18.4745 7.34758 18.8229 7.8107 18.8229 8.35388C18.8229 8.58399 18.6364 8.77055 18.4063 8.77055C18.1761 8.77055 17.9896 8.58399 17.9896 8.35388C17.9896 8.12414 17.8027 7.93721 17.5729 7.93721C17.3432 7.93721 17.1563 8.12414 17.1563 8.35388V8.52248C17.1563 8.7057 17.2738 8.8655 17.4486 8.92018L17.9457 9.0755C18.4704 9.23951 18.8229 9.71899 18.8229 10.2686V10.4372C18.8229 11.0372 18.398 11.5396 17.8333 11.6598V11.7914C17.8333 12.0215 17.6468 12.208 17.4167 12.208C17.1866 12.208 17 12.0215 17 11.7914V11.5476C16.5982 11.3395 16.3229 10.92 16.3229 10.4372C16.3229 10.2071 16.5095 10.0205 16.7396 10.0205C16.9697 10.0205 17.1563 10.2071 17.1563 10.4372C17.1563 10.667 17.3432 10.8539 17.5729 10.8539C17.8027 10.8539 17.9896 10.667 17.9896 10.4372V10.2686C17.9896 10.0854 17.8721 9.9256 17.6972 9.87091L17.2001 9.7156C16.6754 9.55159 16.3229 9.07211 16.3229 8.52248V8.35388C16.3229 7.8107 16.6713 7.34758 17.1563 7.17555V6.99971C17.1563 6.76961 17.3428 6.58305 17.5729 6.58305ZM24.3438 17.6247V22.9372C24.3438 24.5455 23.0353 25.8539 21.4271 25.8539H5.38542C3.77719 25.8539 2.46875 24.5455 2.46875 22.9372V2.52055C2.46875 1.60154 3.21641 0.853882 4.13542 0.853882H17.6771C18.5961 0.853882 19.3438 1.60154 19.3438 2.52055C19.3438 2.75065 19.1572 2.93722 18.9271 2.93722C18.697 2.93722 18.5104 2.75065 18.5104 2.52055C18.5104 2.06107 18.1366 1.68722 17.6771 1.68722H4.13542C3.67594 1.68722 3.30208 2.06107 3.30208 2.52055V22.9372C3.30208 24.086 4.23667 25.0205 5.38542 25.0205H19.3886C18.8472 24.4908 18.5104 23.7527 18.5104 22.9372V16.4268C18.5104 16.1967 18.697 16.0101 18.9271 16.0101C19.1572 16.0101 19.3438 16.1967 19.3438 16.4268V22.9372C19.3438 24.086 20.2783 25.0205 21.4271 25.0205C22.5758 25.0205 23.5104 24.086 23.5104 22.9372V17.6247C23.5104 17.1652 23.1366 16.7914 22.6771 16.7914H20.9063C20.6761 16.7914 20.4896 16.6048 20.4896 16.3747C20.4896 16.1446 20.6761 15.958 20.9063 15.958H22.6771C23.5961 15.958 24.3438 16.7057 24.3438 17.6247ZM6.11458 12.0518C6.11458 11.8217 6.30115 11.6351 6.53125 11.6351H10.0729C10.303 11.6351 10.4896 11.8217 10.4896 12.0518C10.4896 12.2819 10.303 12.4685 10.0729 12.4685H6.53125C6.30115 12.4685 6.11458 12.2819 6.11458 12.0518ZM6.11458 7.3643C6.11458 7.13419 6.30115 6.94763 6.53125 6.94763H10.0729C10.303 6.94763 10.4896 7.13419 10.4896 7.3643C10.4896 7.5944 10.303 7.78096 10.0729 7.78096H6.53125C6.30115 7.78096 6.11458 7.5944 6.11458 7.3643ZM15.6979 16.7393C15.6979 16.9694 15.5114 17.156 15.2813 17.156H6.53125C6.30115 17.156 6.11458 16.9694 6.11458 16.7393C6.11458 16.5092 6.30115 16.3226 6.53125 16.3226H15.2813C15.5114 16.3226 15.6979 16.5092 15.6979 16.7393ZM15.6979 21.1143C15.6979 21.3444 15.5114 21.531 15.2813 21.531H6.53125C6.30115 21.531 6.11458 21.3444 6.11458 21.1143C6.11458 20.8842 6.30115 20.6976 6.53125 20.6976H15.2813C15.5114 20.6976 15.6979 20.8842 15.6979 21.1143Z" fill="#437FC8"/>
</g>
<defs>
<clipPath id="clip0_31_109">
<rect width="25" height="25" fill="white" transform="translate(0.90625 0.853882)"/>
</clipPath>
</defs>
</svg>
