<svg width="25" height="26" viewBox="0 0 25 26" fill="none" xmlns="http://www.w3.org/2000/svg">
<g clip-path="url(#clip0_31_83)">
<path d="M23.7179 4.98413H1.28208C0.576904 4.98413 0 5.56103 0 6.26616V20.3687C0 21.0738 0.576904 21.6508 1.28208 21.6508H23.718C24.423 21.6508 25 21.0739 25 20.3687V6.26616C25 5.56103 24.4231 4.98413 23.7179 4.98413ZM23.2368 5.94561L13.2375 13.4457C13.0577 13.5825 12.7817 13.6681 12.5 13.6668C12.2182 13.6681 11.9423 13.5825 11.7625 13.4457L1.76313 5.94561H23.2368ZM17.8955 13.9406L23.3442 20.6714C23.3497 20.6781 23.3564 20.6833 23.3622 20.6894H1.63779C1.64355 20.683 1.65029 20.6781 1.65576 20.6714L7.10449 13.9406C7.27144 13.7342 7.23979 13.4316 7.03301 13.2643C6.82661 13.0973 6.52402 13.129 6.35703 13.3354L0.961523 20.0005V6.54658L11.1858 14.2148C11.5702 14.5011 12.0377 14.6271 12.4999 14.6283C12.9614 14.6273 13.4294 14.5014 13.814 14.2148L24.0383 6.54658V20.0004L18.6429 13.3354C18.4759 13.129 18.173 13.0973 17.9669 13.2643C17.7602 13.4312 17.7285 13.7342 17.8955 13.9406Z" fill="#437FC8"/>
</g>
<defs>
<clipPath id="clip0_31_83">
<rect width="25" height="25" fill="white" transform="translate(0 0.817383)"/>
</clipPath>
</defs>
</svg>
