<svg width="17" height="17" viewBox="0 0 17 17" fill="none" xmlns="http://www.w3.org/2000/svg">
<g clip-path="url(#clip0_88_14)">
<path d="M8.5 17C6.48739 17 4.53535 16.284 3.00346 14.9839C2.64377 14.6788 2.30636 14.3406 2.00069 13.9786C0.710447 12.4493 0 10.5037 0 8.5C0 6.22954 0.884133 4.09501 2.48957 2.48957C4.09501 0.884133 6.22954 0 8.5 0C10.7705 0 12.905 0.884133 14.5104 2.48957C16.1159 4.09501 17 6.22954 17 8.5C17 10.5037 16.2896 12.4493 14.9995 13.9784C14.6936 14.3406 14.3562 14.6788 13.9964 14.984C12.4647 16.284 10.5126 17 8.5 17ZM8.5 1.0625C4.39895 1.0625 1.0625 4.39895 1.0625 8.5C1.0625 10.2533 1.68403 11.9556 2.8126 13.2933C3.08022 13.6102 3.37576 13.9064 3.69086 14.1737C5.03107 15.3111 6.73894 15.9375 8.5 15.9375C10.2611 15.9375 11.9689 15.3111 13.309 14.1738C13.6242 13.9064 13.9198 13.6101 14.1876 13.2931C15.316 11.9556 15.9375 10.2533 15.9375 8.5C15.9375 4.39895 12.6011 1.0625 8.5 1.0625Z" fill="#C82132"/>
<path d="M8.5 8.5C6.74239 8.5 5.3125 7.07011 5.3125 5.3125C5.3125 3.55489 6.74239 2.125 8.5 2.125C10.2576 2.125 11.6875 3.55489 11.6875 5.3125C11.6875 7.07011 10.2576 8.5 8.5 8.5ZM8.5 3.1875C7.32826 3.1875 6.375 4.14076 6.375 5.3125C6.375 6.48424 7.32826 7.4375 8.5 7.4375C9.67174 7.4375 10.625 6.48424 10.625 5.3125C10.625 4.14076 9.67174 3.1875 8.5 3.1875Z" fill="#C82132"/>
<path d="M13.6532 15.1102C13.6104 15.1102 13.5669 15.105 13.5234 15.0941C13.2389 15.0227 13.0661 14.7341 13.1375 14.4495C13.2329 14.0696 13.2812 13.6765 13.2812 13.2813C13.2812 10.6819 11.168 8.53765 8.56996 8.50033L8.5 8.5L8.43004 8.50033C5.832 8.53765 3.71875 10.6819 3.71875 13.2813C3.71875 13.6765 3.76713 14.0696 3.86249 14.4495C3.93391 14.7341 3.76112 15.0227 3.47657 15.0941C3.19202 15.1655 2.90338 14.9928 2.83196 14.7082C2.71535 14.2437 2.65625 13.7636 2.65625 13.2813C2.65625 11.7347 3.25447 10.2769 4.34071 9.17635C5.42589 8.07686 6.87361 7.45948 8.41719 7.4379C8.41968 7.43787 8.42214 7.43787 8.42463 7.43787L8.5 7.4375L8.57537 7.43783C8.57786 7.43783 8.58032 7.43783 8.58281 7.43787C10.1264 7.45941 11.5741 8.07683 12.6593 9.17631C13.7455 10.2769 14.3438 11.7347 14.3438 13.2813C14.3438 13.7636 14.2846 14.2437 14.168 14.7082C14.1075 14.9493 13.891 15.1102 13.6532 15.1102Z" fill="#C82132"/>
</g>
<defs>
<clipPath id="clip0_88_14">
<rect width="17" height="17" fill="white"/>
</clipPath>
</defs>
</svg>
