<svg width="162" height="120" viewBox="0 0 162 120" fill="none" xmlns="http://www.w3.org/2000/svg">
<circle cx="80.9169" cy="60.7596" r="50.1051" fill="#C82132"/>
<rect x="71.7021" width="18.7174" height="18.7174" fill="#C82132"/>
<rect x="21.597" y="48.6653" width="18.7174" height="18.7174" fill="#C82132"/>
<rect x="121.519" y="48.6653" width="18.7174" height="18.7174" fill="#C82132"/>
<rect x="43.1385" y="11.5184" width="18.7174" height="18.7174" transform="rotate(41.1908 43.1385 11.5184)" fill="#C82132"/>
<rect x="116.856" y="11.5184" width="18.7174" height="18.7174" transform="rotate(41.1908 116.856 11.5184)" fill="#C82132"/>
<circle cx="81.0608" cy="58.024" r="24.6206" fill="white"/>
<rect x="13.5341" y="87.252" width="135.053" height="21.3091" fill="white"/>
<circle cx="139.805" cy="97.7625" r="18.2855" fill="white"/>
<circle cx="22.3169" cy="97.7625" r="18.2855" fill="white"/>
<path d="M141.389 88.1159H160.682V107.409H141.389L136.205 98.7704L141.389 88.1159Z" fill="white"/>
<path d="M20.7331 107.409L1.43981 107.409L1.4398 88.1159L20.7331 88.1159L25.9164 96.7547L20.7331 107.409Z" fill="white"/>
<rect x="12.2848" y="90.542" width="137.18" height="21.6446" fill="#C82132"/>
<circle cx="140.544" cy="101.218" r="18.5734" fill="#C82132"/>
<circle cx="21.2059" cy="101.218" r="18.5734" fill="#C82132"/>
<path d="M142.153 91.4195H161.75V111.017H142.153L136.888 102.242L142.153 91.4195Z" fill="white"/>
<path d="M19.5972 111.017L4.88758e-06 111.017L3.17434e-06 91.4195L19.5972 91.4195L24.8621 100.194L19.5972 111.017Z" fill="white"/>
</svg>
