<svg width="42" height="42" viewBox="0 0 42 42" fill="none" xmlns="http://www.w3.org/2000/svg">
<g clip-path="url(#clip0_88_21)">
<path d="M12.6085 27.6538H35.7505C38.3746 27.6538 40.5153 25.5131 40.5153 22.889V13.1523C40.5153 13.1436 40.5153 13.1264 40.5153 13.1177C40.5153 13.0918 40.5153 13.0746 40.5153 13.0487C40.5153 13.0314 40.5153 13.0142 40.5067 12.9969C40.5067 12.9796 40.498 12.9537 40.498 12.9365C40.498 12.9192 40.4894 12.9019 40.4894 12.8847C40.4808 12.8674 40.4808 12.8502 40.4721 12.8243C40.4635 12.807 40.4635 12.7897 40.4549 12.7725C40.4462 12.7552 40.4462 12.7379 40.4376 12.7207C40.429 12.7034 40.4203 12.6862 40.4117 12.6603C40.4031 12.643 40.3945 12.6257 40.3858 12.6171C40.3772 12.5998 40.3686 12.5826 40.3599 12.5653C40.3513 12.548 40.3427 12.5394 40.334 12.5221C40.3254 12.5049 40.3081 12.4876 40.2995 12.4704C40.2909 12.4531 40.2822 12.4445 40.265 12.4272C40.2563 12.4099 40.2391 12.4013 40.2304 12.384C40.2218 12.3668 40.2046 12.3581 40.1959 12.3409C40.1873 12.3236 40.17 12.315 40.1614 12.3063C40.1441 12.2891 40.1355 12.2805 40.1182 12.2632C40.101 12.2546 40.0923 12.2373 40.0751 12.2287C40.0578 12.22 40.0405 12.2028 40.0233 12.1941C40.006 12.1855 39.9974 12.1769 39.9801 12.1682C39.9629 12.1596 39.9456 12.151 39.9283 12.1337C39.9111 12.1251 39.8938 12.1164 39.8765 12.1078C39.8593 12.0992 39.842 12.0906 39.8247 12.0819C39.8075 12.0733 39.7902 12.0647 39.773 12.056C39.7557 12.0474 39.7384 12.0474 39.7212 12.0388C39.7039 12.0301 39.678 12.0215 39.6607 12.0215C39.6435 12.0215 39.6262 12.0129 39.6176 12.0129C39.5917 12.0042 39.5744 12.0042 39.5485 12.0042C39.5399 12.0042 39.5313 11.9956 39.514 11.9956L10.1829 7.94725V3.85575C10.1829 3.81259 10.1829 3.76943 10.1743 3.7349C10.1743 3.72627 10.1743 3.71764 10.1656 3.70037C10.1656 3.67448 10.157 3.64858 10.157 3.62269C10.1484 3.59679 10.1484 3.57953 10.1397 3.55363C10.1397 3.53637 10.1311 3.52774 10.1311 3.51047C10.1225 3.48458 10.1139 3.45868 10.1052 3.43279C10.1052 3.42415 10.0966 3.40689 10.0966 3.39826C10.088 3.37236 10.0793 3.3551 10.0621 3.3292C10.0534 3.32057 10.0534 3.30331 10.0448 3.29468C10.0362 3.27741 10.0275 3.26015 10.0103 3.24289C10.0016 3.22562 9.99301 3.21699 9.98438 3.19973C9.97574 3.18246 9.96711 3.17383 9.95848 3.15657C9.94985 3.1393 9.93258 3.12204 9.92395 3.10478C9.91532 3.09614 9.90669 3.08751 9.89806 3.07888C9.88079 3.06162 9.86353 3.04435 9.84626 3.02709C9.83763 3.01846 9.829 3.00982 9.82037 3.00119C9.80311 2.98393 9.78584 2.96667 9.75995 2.9494C9.75131 2.94077 9.73405 2.93214 9.72542 2.92351C9.70815 2.90624 9.69089 2.89761 9.67363 2.88035C9.64773 2.86308 9.62184 2.84582 9.60457 2.83719C9.59594 2.82856 9.58731 2.82856 9.57868 2.81992C9.54415 2.80266 9.50099 2.7854 9.46646 2.76813L3.10477 0.0922531C2.50918 -0.158071 1.82726 0.118149 1.57693 0.713748C1.32661 1.30935 1.60283 1.99126 2.19843 2.24159L7.84367 4.62398V9.90669V10.744V17.1661V22.9063V30.1571C7.84367 32.574 9.65636 34.5766 11.9956 34.8787C11.5726 35.5865 11.3223 36.4152 11.3223 37.2956C11.3223 39.8938 13.4371 42 16.0267 42C18.6162 42 20.7311 39.8852 20.7311 37.2956C20.7311 36.4324 20.498 35.6124 20.0837 34.9218H30.5628C30.1484 35.621 29.9154 36.4324 29.9154 37.2956C29.9154 39.8938 32.0302 42 34.6197 42C37.2093 42 39.3241 39.8852 39.3241 37.2956C39.3241 34.706 37.2093 32.5912 34.6197 32.5912H12.6085C11.2619 32.5912 10.1743 31.495 10.1743 30.1571V26.9978C10.8821 27.4121 11.7194 27.6538 12.6085 27.6538ZM18.4091 37.287C18.4091 38.599 17.3387 39.6607 16.0353 39.6607C14.7319 39.6607 13.6616 38.5904 13.6616 37.287C13.6616 35.9836 14.7319 34.9132 16.0353 34.9132C17.3387 34.9132 18.4091 35.9749 18.4091 37.287ZM37.0021 37.287C37.0021 38.599 35.9318 39.6607 34.6284 39.6607C33.325 39.6607 32.2546 38.5904 32.2546 37.287C32.2546 35.9836 33.325 34.9132 34.6284 34.9132C35.9318 34.9132 37.0021 35.9749 37.0021 37.287ZM35.7505 25.3232H12.6085C11.2619 25.3232 10.1743 24.227 10.1743 22.889V17.1488V10.7267V10.2951L38.1847 14.1536V22.8804C38.1847 24.2356 37.0884 25.3232 35.7505 25.3232Z" fill="#595959"/>
</g>
<defs>
<clipPath id="clip0_88_21">
<rect width="42" height="42" fill="white"/>
</clipPath>
</defs>
</svg>
