<svg width="26" height="26" viewBox="0 0 26 26" fill="none" xmlns="http://www.w3.org/2000/svg">
<g clip-path="url(#clip0_88_38)">
<path d="M25.4869 3.26266C25.1815 2.88921 24.7241 2.68359 24.1988 2.68359C23.9133 2.68359 23.6108 2.74368 23.2999 2.8625L2.13789 10.9407C1.01484 11.3693 0.863588 12.0124 0.873315 12.3577C0.883042 12.7029 1.07053 13.3365 2.21609 13.701C2.22295 13.7031 2.22982 13.7052 2.23669 13.7071L6.62626 14.9633L9.00014 21.7515C9.32382 22.677 10.0503 23.2519 10.8964 23.2519C11.4299 23.2519 11.9546 23.0283 12.4139 22.6057L15.129 20.1057L19.0671 23.2767C19.0675 23.277 19.0681 23.2772 19.0685 23.2776L19.1058 23.3078C19.1093 23.3104 19.1129 23.3133 19.1163 23.316C19.5541 23.6555 20.0319 23.8348 20.4986 23.8349H20.4988C21.4107 23.8349 22.1368 23.1599 22.3483 22.1155L25.8157 4.99435C25.9549 4.30713 25.8382 3.6922 25.4869 3.26266V3.26266ZM8.09473 14.7247L16.5635 10.3982L11.2903 16.0015C11.2039 16.0932 11.1427 16.2056 11.1125 16.3278L10.0957 20.4465L8.09473 14.7247ZM11.4215 21.528C11.3864 21.5602 11.3511 21.589 11.3159 21.6156L12.2592 17.7948L13.9753 19.1766L11.4215 21.528ZM24.38 4.70348L20.9127 21.8248C20.8793 21.9886 20.7727 22.3699 20.4986 22.3699C20.3632 22.3699 20.193 22.2961 20.0189 22.162L15.5565 18.5689C15.5559 18.5684 15.5551 18.5678 15.5544 18.5674L12.8991 16.4293L20.5249 8.32629C20.7691 8.06689 20.7912 7.66959 20.5774 7.38464C20.3634 7.09968 19.9756 7.01003 19.6584 7.17216L7.11607 13.5797L2.66679 12.3067L23.8223 4.23103C24.0011 4.16274 24.1258 4.14844 24.1988 4.14844C24.2437 4.14844 24.3234 4.15378 24.353 4.19021C24.3919 4.2377 24.4415 4.39964 24.38 4.70348V4.70348Z" fill="#C82132"/>
</g>
<defs>
<clipPath id="clip0_88_38">
<rect width="25" height="25" fill="white" transform="translate(0.872925 0.779297)"/>
</clipPath>
</defs>
</svg>
