<svg width="26" height="25" viewBox="0 0 26 25" fill="none" xmlns="http://www.w3.org/2000/svg">
<path d="M24.2911 8.82359C24.2913 6.47564 23.371 4.26235 21.7 2.59132C20.0289 0.920296 17.8157 0 15.4675 0H10.2395C10.2393 0 10.2393 0 10.2393 0C7.89153 0 5.67805 0.920296 4.00722 2.59113C2.33619 4.26235 1.41589 6.47564 1.41589 8.82359V12.9332C1.41589 14.7516 1.97055 16.5007 3.01997 17.9916C3.9458 19.3069 5.19092 20.3344 6.6426 20.9858V23.3463C6.6426 24.5668 7.326 25 7.91118 25C8.32927 25 8.74736 24.7936 9.15439 24.3868L11.7842 21.7569L15.4677 21.7567C17.8157 21.7567 20.0289 20.8364 21.7 19.1656C23.371 17.4946 24.2913 15.2811 24.2913 12.9332L24.2911 8.82359ZM15.4677 20.2919L11.481 20.2921C11.2866 20.2921 11.1005 20.3691 10.9631 20.5065L8.1187 23.3509C8.11507 23.3547 8.11126 23.3583 8.10744 23.362C8.10744 23.3568 8.10744 23.3515 8.10744 23.3463V20.4969C8.10744 20.1931 7.91995 19.9209 7.63614 19.8126C4.7919 18.7273 2.88093 15.9626 2.88093 12.9332V8.82359C2.88093 6.86684 3.64883 5.02129 5.0431 3.62682C6.43737 2.23274 8.28273 1.46484 10.2395 1.46484H15.4675C17.4243 1.46484 19.2698 2.23274 20.6641 3.62701C22.0586 5.02148 22.8265 6.86703 22.8263 8.82359L22.8265 12.9332C22.8263 16.9909 19.5252 20.2919 15.4677 20.2919Z" fill="#C82132"/>
<path d="M14.8013 11.9797C14.5154 11.6936 14.0517 11.6936 13.7656 11.9797L13.1739 12.5711L10.8813 10.2787L11.473 9.68721C11.6103 9.54988 11.6875 9.36353 11.6875 9.16917C11.6875 8.97501 11.6103 8.78866 11.473 8.65133L8.69929 5.87766C8.56196 5.74033 8.37581 5.66309 8.18145 5.66309C7.98728 5.66309 7.80093 5.74033 7.6636 5.87766L5.72192 7.81934C4.67193 8.86934 4.67193 10.5781 5.72211 11.6287L11.8239 17.7309C12.3313 18.238 13.0078 18.5173 13.7286 18.5173C14.4496 18.5173 15.1261 18.238 15.6335 17.7309L17.5751 15.7894C17.7125 15.6519 17.7897 15.4657 17.7897 15.2714C17.7897 15.0772 17.7125 14.8908 17.5751 14.7535L14.8013 11.9797ZM14.5976 16.6948C14.367 16.9254 14.0584 17.0524 13.7286 17.0524C13.3988 17.0524 13.0902 16.9254 12.8596 16.6948L6.75799 10.5928C6.27887 10.1137 6.27868 9.33397 6.7578 8.85503L8.18145 7.4312L9.91923 9.16917L9.32757 9.76064C9.19024 9.89797 9.113 10.0843 9.113 10.2785C9.113 10.4728 9.19024 10.659 9.32757 10.7965L12.6559 14.1248C12.942 14.4108 13.4057 14.4109 13.6918 14.1248L14.2834 13.5334L16.0212 15.2712L14.5976 16.6948Z" fill="#C82132"/>
<path d="M13.0312 3.24023C12.6267 3.24023 12.2988 3.56811 12.2988 3.97266C12.2988 4.37701 12.6267 4.70508 13.0312 4.70508C14.7074 4.70508 16.2835 5.35777 17.4687 6.54319C18.6541 7.72842 19.3068 9.30427 19.3068 10.9806C19.3068 11.385 19.6347 11.7131 20.0392 11.7131C20.4436 11.7131 20.7717 11.3852 20.7717 10.9806C20.7717 8.91307 19.9666 6.96929 18.5046 5.50731C17.0426 4.04533 15.0988 3.24023 13.0312 3.24023Z" fill="#C82132"/>
<path d="M16.1688 10.9802C16.1688 11.3845 16.4969 11.7126 16.9013 11.7126C17.3058 11.7126 17.6337 11.3845 17.6337 10.9802C17.6337 8.44244 15.569 6.37793 13.0312 6.37793C12.6267 6.37793 12.2988 6.7058 12.2988 7.11035C12.2988 7.5149 12.6267 7.84277 13.0312 7.84277C14.7614 7.84277 16.1688 9.25021 16.1688 10.9802Z" fill="#C82132"/>
</svg>
