<svg width="12" height="12" viewBox="0 0 12 12" fill="none" xmlns="http://www.w3.org/2000/svg">
<path d="M7.06083 6.40114L11.8273 1.63467C11.9951 1.46685 11.9951 1.19478 11.8273 1.02698C11.6595 0.859191 11.3874 0.85917 11.2196 1.02698L6.45312 5.79346L1.68667 1.02698C1.51886 0.85917 1.24678 0.85917 1.07899 1.02698C0.911193 1.1948 0.911171 1.46688 1.07899 1.63467L5.84544 6.40112L1.07899 11.1676C0.911171 11.3354 0.911171 11.6075 1.07899 11.7753C1.16288 11.8592 1.27286 11.9011 1.38284 11.9011C1.49282 11.9011 1.60277 11.8592 1.68669 11.7753L6.45312 7.00882L11.2196 11.7753C11.3035 11.8592 11.4134 11.9011 11.5234 11.9011C11.6334 11.9011 11.7434 11.8592 11.8273 11.7753C11.9951 11.6075 11.9951 11.3354 11.8273 11.1676L7.06083 6.40114Z" fill="#437FC8"/>
</svg>
