<svg width="20" height="21" viewBox="0 0 20 21" fill="none" xmlns="http://www.w3.org/2000/svg">
<g clip-path="url(#clip0_88_29)">
<path d="M8.80749 0.267578C3.95112 0.267578 -9.15527e-05 4.21879 -9.15527e-05 9.07516C-9.15527e-05 13.9318 3.95112 17.8827 8.80749 17.8827C13.6641 17.8827 17.6151 13.9318 17.6151 9.07516C17.6151 4.21879 13.6641 0.267578 8.80749 0.267578ZM8.80749 16.2568C4.8476 16.2568 1.62592 13.0351 1.62592 9.0752C1.62592 5.11531 4.8476 1.89359 8.80749 1.89359C12.7674 1.89359 15.989 5.11527 15.989 9.07516C15.989 13.035 12.7674 16.2568 8.80749 16.2568Z" fill="#1A467C"/>
<path d="M19.7617 18.8799L15.1005 14.2187C14.7829 13.9011 14.2685 13.9011 13.9509 14.2187C13.6332 14.536 13.6332 15.0509 13.9509 15.3683L18.6121 20.0296C18.7709 20.1883 18.9788 20.2678 19.1869 20.2678C19.3948 20.2678 19.6029 20.1883 19.7617 20.0296C20.0794 19.7122 20.0794 19.1973 19.7617 18.8799Z" fill="#1A467C"/>
</g>
<defs>
<clipPath id="clip0_88_29">
<rect width="20" height="20" fill="white" transform="translate(-9.15527e-05 0.267578)"/>
</clipPath>
</defs>
</svg>
